<svg xmlns="http://www.w3.org/2000/svg" viewBox="0 0 841.9 595.3"><g fill="#61DAFB"><path d="M666.3 296.5c0 58.9-47.8 106.7-106.7 106.7-58.9 0-106.7-47.8-106.7-106.7 0-58.9 47.8-106.7 106.7-106.7 58.9 0 106.7 47.8 106.7 106.7z"/><path d="M667.4 296.5c0 59.6-48.4 108-108 108s-108-48.4-108-108 48.4-108 108-108 108 48.4 108 108zm-108 99.7c55 0 99.7-44.7 99.7-99.7s-44.7-99.7-99.7-99.7-99.7 44.7-99.7 99.7 44.7 99.7 99.7 99.7z"/><path d="M666.3 296.5c0 58.9-47.8 106.7-106.7 106.7-58.9 0-106.7-47.8-106.7-106.7 0-58.9 47.8-106.7 106.7-106.7 58.9 0 106.7 47.8 106.7 106.7z"/><path d="M667.4 296.5c0 59.6-48.4 108-108 108s-108-48.4-108-108 48.4-108 108-108 108 48.4 108 108zm-108 99.7c55 0 99.7-44.7 99.7-99.7s-44.7-99.7-99.7-99.7-99.7 44.7-99.7 99.7 44.7 99.7 99.7 99.7z"/><path d="M666.3 296.5c0 58.9-47.8 106.7-106.7 106.7-58.9 0-106.7-47.8-106.7-106.7 0-58.9 47.8-106.7 106.7-106.7 58.9 0 106.7 47.8 106.7 106.7z"/><path d="M667.4 296.5c0 59.6-48.4 108-108 108s-108-48.4-108-108 48.4-108 108-108 108 48.4 108 108zm-108 99.7c55 0 99.7-44.7 99.7-99.7s-44.7-99.7-99.7-99.7-99.7 44.7-99.7 99.7 44.7 99.7 99.7 99.7z"/></g></svg> 